<?xml version="1.0" encoding="utf-8"?>
<!-- Generator: Adobe Illustrator 27.0.1, SVG Export Plug-In . SVG Version: 6.00 Build 0)  -->
<svg version="1.1" id="Layer_1" xmlns="http://www.w3.org/2000/svg" xmlns:xlink="http://www.w3.org/1999/xlink" x="0px" y="0px"
	 viewBox="0 0 253 216.9" style="enable-background:new 0 0 253 216.9;" xml:space="preserve">
<style type="text/css">
	.st0{stroke:#000000;stroke-width:9;stroke-miterlimit:10;}
</style>
<path class="st0" d="M251,69.9v145H2v-145H251 M253,67.9H0v149h253V67.9z"/>
<path class="st0" d="M203.9,67.4c-13.6-25.2-26.5-42-38.9-52.6C152.6,4.3,141.2,4,130.3,4c-11,0-21.4,0.4-30.5,6.8
	c-13.6,9.7-24.9,24.1-33.6,36c-4.3,6-17,21.1-17.2,21.1c0,0,0,2,0,2s0.1,0,0.2,0c0,0,13.9-15.6,19-22.4c0.1-0.1,0.2-0.3,0.3-0.4
	c7.2-9.9,16.1-21.2,26.5-30c10.4-8.8,22.6-10.6,35.5-10.6c10.4,0,21.2-0.4,33.3,9.9c12.1,10.3,24.9,27,38.4,52L203.9,67.4
	L203.9,67.4L203.9,67.4z"/>
</svg>
