<?xml version="1.0" encoding="utf-8"?>
<!-- Generator: Adobe Illustrator 27.0.1, SVG Export Plug-In . SVG Version: 6.00 Build 0)  -->
<svg version="1.1" id="Layer_1" xmlns="http://www.w3.org/2000/svg" xmlns:xlink="http://www.w3.org/1999/xlink" x="0px" y="0px"
	 viewBox="0 0 266.6 253.3" style="enable-background:new 0 0 266.6 253.3;" xml:space="preserve">
<style type="text/css">
	.st0{fill:#222222;}
</style>
<path class="st0" d="M200.7,146.6c-24.8,0-45.6,17.7-50.9,41.3c-12.7-5.5-24.3-4-33.1-0.1c-5.5-23.7-26.3-41.2-50.9-41.2
	c-28.9,0-52.5,23.9-52.5,53.3s23.6,53.3,52.5,53.3c27.5,0,49.9-21.6,52-49.1c4.5-3.2,16.4-9.2,30.9,0.3c2.4,27.3,24.5,48.8,52,48.8
	c28.9,0,52.5-23.9,52.5-53.3S229.7,146.6,200.7,146.6z M65.8,238.1c-20.8,0-37.5-17.1-37.5-38.1s16.8-38.1,37.5-38.1
	c20.8,0,37.5,17.1,37.5,38.1S86.6,238.1,65.8,238.1z M200.7,238.1c-20.8,0-37.5-17.1-37.5-38.1s16.7-38.1,37.5-38.1
	c20.8,0,37.6,17.1,37.6,38.1S221.4,238.1,200.7,238.1z M266.6,113.3H0v20h266.6V113.3z M180.3,8.4c-2.9-6.5-10.4-10-17.5-7.7
	l-29.6,9.9l-29.7-9.9l-0.7-0.1c-7.1-2-14.5,1.7-17.2,8.5L53.3,93.3h159.9L180.7,9.1L180.3,8.4z"/>
</svg>
