<?xml version="1.0" encoding="utf-8"?>
<!-- Generator: Adobe Illustrator 27.0.1, SVG Export Plug-In . SVG Version: 6.00 Build 0)  -->
<svg version="1.1" id="Layer_1" xmlns="http://www.w3.org/2000/svg" xmlns:xlink="http://www.w3.org/1999/xlink" x="0px" y="0px"
	 viewBox="0 0 519.5 65.4" style="enable-background:new 0 0 519.5 65.4;" xml:space="preserve">
<style type="text/css">
	.st0{clip-path:url(#SVGID_00000089575905432320013700000003651021564451188918_);}
	.st1{clip-path:url(#SVGID_00000168107210892663987160000000996334603343672461_);fill:#0B381E;}
	.st2{clip-path:url(#SVGID_00000016790405904698032060000002357690972433774229_);fill:#0B381E;}
	.st3{clip-path:url(#SVGID_00000155129804736746130110000018428224716427543725_);fill:#0B381E;}
	.st4{clip-path:url(#SVGID_00000107553294925331169710000003238629837148862390_);fill:#0B381E;}
	.st5{clip-path:url(#SVGID_00000117648503422405471980000002827855185331875004_);fill:#0B381E;}
	.st6{clip-path:url(#SVGID_00000009561072559078149140000015047866385908858265_);fill:#0B381E;}
	.st7{clip-path:url(#SVGID_00000126290821980144830840000013201239241234528669_);fill:#0B381E;}
	.st8{clip-path:url(#SVGID_00000147197467998161860930000012677920594783093401_);fill:#0B381E;}
	.st9{clip-path:url(#SVGID_00000113349122618751075750000003189074852355976579_);fill:#0B381E;}
	.st10{clip-path:url(#SVGID_00000057829790750837482720000013598413368694570943_);fill:#0B381E;}
	.st11{clip-path:url(#SVGID_00000173119516350872830830000012591830765645234594_);fill:#0B381E;}
	.st12{clip-path:url(#SVGID_00000155829575649909812400000011550513010328451504_);fill:#0B381E;}
	.st13{clip-path:url(#SVGID_00000104686571017422846690000017952749689591056256_);fill:#0B381E;}
	.st14{clip-path:url(#SVGID_00000121963757340323996270000001462738579390726017_);fill:#0B381E;}
	.st15{clip-path:url(#SVGID_00000077322383186278296310000015255239686968938910_);fill:#0B381E;}
	.st16{clip-path:url(#SVGID_00000048497100041697125570000002414344455316655514_);fill:#0B381E;}
	.st17{clip-path:url(#SVGID_00000052789815153715817980000006039389772720293773_);fill:#0B381E;}
	.st18{clip-path:url(#SVGID_00000119085786370624687080000011655053482587594123_);fill:#0B381E;}
	.st19{clip-path:url(#SVGID_00000114790275415982076630000005495340447418706828_);fill:#0B381E;}
	.st20{clip-path:url(#SVGID_00000114777625206854735800000004996092829580310460_);fill:#0B381E;}
	.st21{clip-path:url(#SVGID_00000078737382171168209030000009637835971693535367_);fill:#0B381E;}
	.st22{clip-path:url(#SVGID_00000081609995774446685690000001312221996194734749_);fill:#0B381E;}
	.st23{clip-path:url(#SVGID_00000070093832495453886980000016456349057123969713_);fill:#F89521;}
	.st24{clip-path:url(#SVGID_00000067917593465831559580000015089639924900623009_);fill:#010101;}
	.st25{clip-path:url(#SVGID_00000062873483921804557270000003814943677382025377_);fill:#EC2227;}
	.st26{clip-path:url(#SVGID_00000181047608015421542420000000182737169949883277_);fill:#EC2227;}
	.st27{clip-path:url(#SVGID_00000104678487988601636580000006812446505572647042_);fill:#EC2227;}
	.st28{clip-path:url(#SVGID_00000092438674849809424970000012378899553120021434_);}
	.st29{clip-path:url(#SVGID_00000142874588881003889050000014041803319349109408_);fill:#EC2227;}
	.st30{clip-path:url(#SVGID_00000174589476700246673920000016848110106568306086_);fill:#EC2227;}
	.st31{clip-path:url(#SVGID_00000013186730570238735430000003748916298845100970_);fill:#EC2227;}
	.st32{clip-path:url(#SVGID_00000041265928158157853850000004756969789870179474_);fill:#EC2227;}
	.st33{clip-path:url(#SVGID_00000059306608018591950250000007438933300429763737_);fill:#EC2227;}
	.st34{clip-path:url(#SVGID_00000134955095223945724370000014530880246295590302_);fill:#EC2227;}
	.st35{clip-path:url(#SVGID_00000154414487872821039040000002481719375682121384_);fill:#010101;}
	.st36{clip-path:url(#SVGID_00000042730488286011633750000002238969742062711424_);fill:#010101;}
	.st37{clip-path:url(#SVGID_00000019667617695627681890000008174211587263250869_);fill:#010101;}
	.st38{clip-path:url(#SVGID_00000131348177694785197300000001856920794538968708_);fill:#010101;}
	.st39{clip-path:url(#SVGID_00000054966224008723511660000017067409252955274669_);fill:#010101;}
	.st40{clip-path:url(#SVGID_00000163056792333820180650000014424883379813370787_);fill:#010101;}
	.st41{clip-path:url(#SVGID_00000038394248631236953660000015785908969864183717_);fill:#010101;}
	.st42{clip-path:url(#SVGID_00000039127715402347361110000004252636754757530496_);fill:#010101;}
	.st43{clip-path:url(#SVGID_00000031205775409822231250000015952832584127178905_);fill:#010101;}
	.st44{clip-path:url(#SVGID_00000113312665532179760420000015084398117115740040_);fill:#010101;}
	.st45{clip-path:url(#SVGID_00000179613846620198462900000005925141639025214903_);fill:#010101;}
	.st46{clip-path:url(#SVGID_00000020389272048374187280000003891369838416996523_);fill:#010101;}
	.st47{clip-path:url(#SVGID_00000020362453542188300410000001326723286972315533_);fill:#010101;}
	.st48{clip-path:url(#SVGID_00000152263386873371810240000006534765489744518554_);fill:#FFFFFF;}
</style>
<g>
	<g>
		<g>
			<g>
				<defs>
					<rect id="SVGID_1_" x="317.9" y="0.1" width="201.6" height="48"/>
				</defs>
				<clipPath id="SVGID_00000050646284207865078430000012989697887374248071_">
					<use xlink:href="#SVGID_1_"  style="overflow:visible;"/>
				</clipPath>
				<g style="clip-path:url(#SVGID_00000050646284207865078430000012989697887374248071_);">
					<g>
						<g>
							<g>
								<g>
									<defs>
										<rect id="SVGID_00000045591491925107672720000015093674565361921446_" x="317.9" y="0.1" width="201.6" height="48"/>
									</defs>
									<clipPath id="SVGID_00000103982161262328216750000004065674734675506101_">
										<use xlink:href="#SVGID_00000045591491925107672720000015093674565361921446_"  style="overflow:visible;"/>
									</clipPath>
									<path style="clip-path:url(#SVGID_00000103982161262328216750000004065674734675506101_);fill:#0B381E;" d="M517,38.1v-38
										h-11.7v1h2.9v15.2c-0.9-1.6-2.6-2.5-5.5-2.5c-6.1,0-9.4,4.1-9.4,12.8c0,5.9,1.5,9.7,4.2,11.5h-8V22.4
										c0-6.2-2.9-8.6-7.3-8.6c-4.7,0-6.2,2.7-7.1,5.2v-4.7h-11.3v1h2.5v22.8h-8.8c2.6-1.4,3.8-3.8,4.5-6.6l-0.8-0.2
										c-1,4-3.3,6.4-6.8,6.4c-4.6,0-5.5-4.1-5.5-10.2v-1.9H462c0.3-7.8-2.9-11.8-10.3-11.8c-6.6,0-12.2,3.9-12.2,12.8
										c0,5.3,1.9,9.5,6.1,11.5h-7.8l-7.9-17.7l5.6-5.2h3.3v-1h-9.3v1h4.3l-10.6,9.6l-0.7,0.3v-25h-11.7v1h2.9v37h-8.9
										c2.6-1.4,3.8-3.8,4.5-6.6l-0.8-0.2c-1,4-3.4,6.4-6.9,6.4c-4.6,0-5.6-4.1-5.6-10.2v-1.9h13.4c0.3-7.8-2.9-11.8-10.3-11.8
										c-6.6,0-12.2,3.9-12.2,12.8c0,5.3,1.9,9.5,6.1,11.5h-12.5c2.6-1.4,3.8-3.8,4.5-6.6l-0.8-0.2c-1,4-3.4,6.4-6.9,6.4
										c-4.6,0-5.6-4.1-5.6-10.2v-1.9H385c0.3-7.8-2.9-11.8-10.3-11.8c-6.6,0-12.2,3.9-12.2,12.8c0,5.3,1.9,9.5,6.1,11.5h-14.8
										l8.4-34.4h3.2v-1H356v1h4.7L355,28.2l-7-24.4h2.8v-1h-14.6v1h2.7l2.8,9.8l-3.9,14.8L330,3.8h3.2v-1h-15.3v1h2.3l11.9,35.6
										h187.4v-1.2L517,38.1L517,38.1z M448.8,22c0-5.5,0.8-7.2,2.5-7.2c1.9,0,2.2,1.8,2.2,7.2v2.6h-4.7V22z M396.3,22
										c0-5.5,0.8-7.2,2.5-7.2c1.9,0,2.2,1.8,2.2,7.2v2.6h-4.7V22z M371.7,22c0-5.5,0.9-7.2,2.6-7.2c1.9,0,2.4,1.8,2.4,7.2v2.6h-5
										V22L371.7,22z M336.5,38.1l5.8-22.1l6.6,22.1H336.5z M422.6,26.2l0.9-0.3l5,12.2h-5.9V26.2L422.6,26.2z M475.1,23.7
										c0-4.2,1.9-7.4,3.9-7.4c1.2,0,1.8,0.5,1.8,4.9v17h-5.6L475.1,23.7L475.1,23.7z M502.4,25.5c0-7.2,0.5-10.2,2.8-10.2
										c2.1,0,3.1,2.5,3.1,5.3v11.2c0,3.9-1.9,5.3-3.3,5.3c-2,0-2.6-1.7-2.6-9V25.5L502.4,25.5z M508.4,35.2l0.4,2.9h-2.4
										C507.3,37.4,507.9,36.4,508.4,35.2"/>
								</g>
							</g>
						</g>
					</g>
					<g>
						<g>
							<g>
								<g>
									<defs>
										<rect id="SVGID_00000039845062954942983110000018308879197102591165_" x="317.9" y="0.1" width="201.6" height="48"/>
									</defs>
									<clipPath id="SVGID_00000093163103773448687390000007599380677466009011_">
										<use xlink:href="#SVGID_00000039845062954942983110000018308879197102591165_"  style="overflow:visible;"/>
									</clipPath>
									<polygon style="clip-path:url(#SVGID_00000093163103773448687390000007599380677466009011_);fill:#0B381E;" points="
										413.8,41.6 414.8,41.6 416,45.6 416,45.6 417.2,41.6 418.2,41.6 418.2,46.6 417.5,46.6 417.5,42.6 416.3,46.6 415.7,46.6 
										414.5,42.6 414.5,46.6 413.8,46.6 									"/>
								</g>
							</g>
						</g>
					</g>
					<g>
						<g>
							<g>
								<g>
									<defs>
										<rect id="SVGID_00000139272947939858379100000000890854223794173104_" x="317.9" y="0.1" width="201.6" height="48"/>
									</defs>
									<clipPath id="SVGID_00000001626121666032770420000012125731918239061666_">
										<use xlink:href="#SVGID_00000139272947939858379100000000890854223794173104_"  style="overflow:visible;"/>
									</clipPath>
									<path style="clip-path:url(#SVGID_00000001626121666032770420000012125731918239061666_);fill:#0B381E;" d="M420.5,46.7
										c-0.2,0-0.4,0-0.5-0.1c-0.2,0-0.3-0.1-0.4-0.2s-0.2-0.3-0.3-0.4s-0.1-0.4-0.1-0.6c0-0.3,0-0.5,0.1-0.7s0.2-0.3,0.3-0.4
										s0.3-0.2,0.4-0.3s0.3-0.1,0.5-0.2c0.2,0,0.4-0.1,0.5-0.1c0.2,0,0.3,0,0.4-0.1c0.1,0,0.2-0.1,0.3-0.2s0.1-0.2,0.1-0.3
										c0-0.2,0-0.3-0.1-0.4s-0.1-0.2-0.2-0.2c-0.1-0.1-0.2-0.1-0.3-0.1s-0.2,0-0.3,0c-0.3,0-0.5,0.1-0.7,0.2s-0.3,0.4-0.3,0.8
										h-0.7c0-0.3,0.1-0.6,0.2-0.8s0.2-0.4,0.4-0.5c0.2-0.1,0.3-0.2,0.5-0.3s0.4-0.1,0.7-0.1c0.2,0,0.4,0,0.5,0
										c0.2,0,0.3,0.1,0.5,0.2c0.2,0.1,0.3,0.2,0.3,0.4c0.1,0.2,0.1,0.4,0.1,0.7v2.6c0,0.2,0,0.3,0,0.4c0,0.1,0.1,0.1,0.2,0.1
										c0,0,0.1,0,0.2,0v0.6c-0.1,0.1-0.3,0.1-0.5,0.1s-0.3-0.1-0.4-0.2s-0.2-0.3-0.2-0.6c-0.2,0.3-0.4,0.5-0.6,0.6
										C421.1,46.6,420.8,46.7,420.5,46.7 M420.7,46c0.2,0,0.4,0,0.6-0.1s0.3-0.2,0.4-0.3s0.2-0.2,0.2-0.4s0.1-0.3,0.1-0.4V44
										c-0.1,0.1-0.2,0.1-0.3,0.2c-0.1,0-0.3,0.1-0.4,0.1c-0.2,0-0.3,0-0.5,0.1s-0.3,0.1-0.4,0.1s-0.2,0.2-0.3,0.3
										s-0.1,0.3-0.1,0.5c0,0.1,0,0.2,0.1,0.3s0.1,0.2,0.2,0.2s0.2,0.1,0.2,0.1C420.5,46,420.6,46,420.7,46"/>
								</g>
							</g>
						</g>
					</g>
					<g>
						<g>
							<g>
								<g>
									<defs>
										<rect id="SVGID_00000179619920504056941120000001983070320438803337_" x="317.9" y="0.1" width="201.6" height="48"/>
									</defs>
									<clipPath id="SVGID_00000158008412289806466750000002200365180211155617_">
										<use xlink:href="#SVGID_00000179619920504056941120000001983070320438803337_"  style="overflow:visible;"/>
									</clipPath>
									<polygon style="clip-path:url(#SVGID_00000158008412289806466750000002200365180211155617_);fill:#0B381E;" points="
										423.8,41.6 426.6,41.6 426.6,42.3 424.5,42.3 424.5,46.6 423.8,46.6 									"/>
								</g>
							</g>
						</g>
					</g>
					<g>
						<g>
							<g>
								<g>
									<defs>
										<rect id="SVGID_00000002368477989398307800000003789149869708460200_" x="317.9" y="0.1" width="201.6" height="48"/>
									</defs>
									<clipPath id="SVGID_00000104702795718715594810000014877827160260029079_">
										<use xlink:href="#SVGID_00000002368477989398307800000003789149869708460200_"  style="overflow:visible;"/>
									</clipPath>
									<path style="clip-path:url(#SVGID_00000104702795718715594810000014877827160260029079_);fill:#0B381E;" d="M428.5,46.7
										c-0.2,0-0.4,0-0.5-0.1c-0.2,0-0.3-0.1-0.4-0.2s-0.2-0.3-0.3-0.4s-0.1-0.4-0.1-0.6c0-0.3,0-0.5,0.1-0.7s0.2-0.3,0.3-0.4
										s0.3-0.2,0.4-0.3s0.3-0.1,0.5-0.2c0.2,0,0.4-0.1,0.5-0.1c0.2,0,0.3,0,0.4-0.1c0.1,0,0.2-0.1,0.3-0.2s0.1-0.2,0.1-0.3
										c0-0.2,0-0.3-0.1-0.4s-0.1-0.2-0.2-0.2c-0.1-0.1-0.2-0.1-0.3-0.1s-0.2,0-0.3,0c-0.3,0-0.5,0.1-0.7,0.2s-0.3,0.4-0.3,0.8
										h-0.7c0-0.3,0.1-0.6,0.2-0.8s0.2-0.4,0.4-0.5c0.2-0.1,0.3-0.2,0.5-0.3s0.4-0.1,0.7-0.1c0.2,0,0.4,0,0.5,0
										c0.2,0,0.3,0.1,0.5,0.2c0.2,0.1,0.3,0.2,0.3,0.4c0.1,0.2,0.1,0.4,0.1,0.7v2.6c0,0.2,0,0.3,0,0.4c0,0.1,0.1,0.1,0.2,0.1
										c0,0,0.1,0,0.2,0v0.6c-0.1,0.1-0.3,0.1-0.5,0.1s-0.3-0.1-0.4-0.2s-0.2-0.3-0.2-0.6c-0.2,0.3-0.4,0.5-0.6,0.6
										C429,46.6,428.8,46.7,428.5,46.7 M428.6,46c0.2,0,0.4,0,0.6-0.1s0.3-0.2,0.4-0.3s0.2-0.2,0.2-0.4s0.1-0.3,0.1-0.4V44
										c-0.1,0.1-0.2,0.1-0.3,0.2c-0.1,0-0.3,0.1-0.4,0.1c-0.2,0-0.3,0-0.5,0.1s-0.3,0.1-0.4,0.1s-0.2,0.2-0.3,0.3
										c-0.1,0.1-0.1,0.3-0.1,0.5c0,0.1,0,0.2,0.1,0.3c0,0.1,0.1,0.2,0.2,0.2s0.2,0.1,0.2,0.1C428.4,46,428.5,46,428.6,46"/>
								</g>
							</g>
						</g>
					</g>
					<g>
						<g>
							<g>
								<g>
									<defs>
										<rect id="SVGID_00000104694838779780883160000009703976470044849539_" x="317.9" y="0.1" width="201.6" height="48"/>
									</defs>
									<clipPath id="SVGID_00000103964991420020209720000008072395770427829386_">
										<use xlink:href="#SVGID_00000104694838779780883160000009703976470044849539_"  style="overflow:visible;"/>
									</clipPath>
									<path style="clip-path:url(#SVGID_00000103964991420020209720000008072395770427829386_);fill:#0B381E;" d="M433.2,46.7
										c-0.5,0-1-0.2-1.3-0.5s-0.5-0.7-0.5-1.3h0.7c0,0.4,0.1,0.6,0.3,0.8s0.5,0.2,0.8,0.2s0.6-0.1,0.7-0.2s0.3-0.4,0.3-0.6
										c0-0.2-0.1-0.5-0.2-0.6s-0.3-0.2-0.7-0.2h-0.5v-0.7h0.4c0.2,0,0.4-0.1,0.6-0.2c0.2-0.1,0.2-0.3,0.2-0.6
										c0-0.2-0.1-0.3-0.2-0.5c-0.1-0.1-0.4-0.2-0.6-0.2c-0.1,0-0.2,0-0.4,0c-0.1,0-0.2,0.1-0.3,0.2c-0.1,0.1-0.2,0.2-0.2,0.3
										c-0.1,0.1-0.1,0.3-0.1,0.4h-0.7c0-0.3,0.1-0.6,0.2-0.8s0.2-0.4,0.4-0.5c0.2-0.1,0.3-0.2,0.5-0.3c0.2,0,0.4-0.1,0.6-0.1
										s0.4,0,0.6,0.1c0.2,0,0.3,0.1,0.5,0.2c0.1,0.1,0.2,0.2,0.3,0.4s0.1,0.4,0.1,0.6c0,0.3-0.1,0.5-0.2,0.7s-0.3,0.3-0.5,0.3
										l0,0c0.1,0,0.2,0.1,0.3,0.1s0.2,0.1,0.2,0.2s0.1,0.2,0.2,0.4s0.1,0.3,0.1,0.5c0,0.3,0,0.5-0.1,0.7s-0.2,0.4-0.4,0.5
										c-0.2,0.1-0.3,0.2-0.5,0.3C433.7,46.7,433.5,46.7,433.2,46.7"/>
								</g>
							</g>
						</g>
					</g>
					<g>
						<g>
							<g>
								<g>
									<defs>
										<rect id="SVGID_00000158711579866196898150000010177309730389283998_" x="317.9" y="0.1" width="201.6" height="48"/>
									</defs>
									<clipPath id="SVGID_00000121999895482231907750000014663373951471848851_">
										<use xlink:href="#SVGID_00000158711579866196898150000010177309730389283998_"  style="overflow:visible;"/>
									</clipPath>
									<polygon style="clip-path:url(#SVGID_00000121999895482231907750000014663373951471848851_);fill:#0B381E;" points="
										435.9,41.6 436.6,41.6 436.6,45.7 438.5,41.6 439.4,41.6 439.4,46.6 438.7,46.6 438.7,42.5 436.8,46.6 435.9,46.6 
																			"/>
								</g>
							</g>
						</g>
					</g>
					<g>
						<g>
							<g>
								<g>
									<defs>
										<rect id="SVGID_00000083057561834870443820000016145175873314332811_" x="317.9" y="0.1" width="201.6" height="48"/>
									</defs>
									<clipPath id="SVGID_00000115487441038769944370000009123066345338486705_">
										<use xlink:href="#SVGID_00000083057561834870443820000016145175873314332811_"  style="overflow:visible;"/>
									</clipPath>
									<polygon style="clip-path:url(#SVGID_00000115487441038769944370000009123066345338486705_);fill:#0B381E;" points="
										440.6,41.6 441.2,41.6 441.2,43.6 443.3,43.6 443.3,41.6 444,41.6 444,46.6 443.3,46.6 443.3,44.3 441.2,44.3 441.2,46.6 
										440.6,46.6 									"/>
								</g>
							</g>
						</g>
					</g>
					<g>
						<g>
							<g>
								<g>
									<defs>
										<rect id="SVGID_00000027601883705779023460000004422101378130993573_" x="317.9" y="0.1" width="201.6" height="48"/>
									</defs>
									<clipPath id="SVGID_00000125586532185898244450000004674302668701289634_">
										<use xlink:href="#SVGID_00000027601883705779023460000004422101378130993573_"  style="overflow:visible;"/>
									</clipPath>
									<path style="clip-path:url(#SVGID_00000125586532185898244450000004674302668701289634_);fill:#0B381E;" d="M445.2,41.6
										h0.7v1.9h1.3c0.4,0,0.7,0.1,1,0.4s0.4,0.6,0.4,1.1s-0.1,0.8-0.3,1.1c-0.2,0.3-0.5,0.4-0.9,0.4h-2v-4.9H445.2z M446.9,45.9
										c0.6,0,0.8-0.3,0.8-0.8s-0.3-0.8-0.8-0.8h-1V46L446.9,45.9L446.9,45.9z M449.1,41.6h0.7v5h-0.7V41.6z"/>
								</g>
							</g>
						</g>
					</g>
					<g>
						<g>
							<g>
								<g>
									<defs>
										<rect id="SVGID_00000008114597551222871470000010477049103409673380_" x="317.9" y="0.1" width="201.6" height="48"/>
									</defs>
									<clipPath id="SVGID_00000050655692468431202260000014720520843284473232_">
										<use xlink:href="#SVGID_00000008114597551222871470000010477049103409673380_"  style="overflow:visible;"/>
									</clipPath>
									<polygon style="clip-path:url(#SVGID_00000050655692468431202260000014720520843284473232_);fill:#0B381E;" points="
										453.3,41.6 454.3,41.6 455.5,45.6 455.5,45.6 456.7,41.6 457.7,41.6 457.7,46.6 457,46.6 457,42.6 455.8,46.6 455.2,46.6 
										454,42.6 454,46.6 453.3,46.6 									"/>
								</g>
							</g>
						</g>
					</g>
					<g>
						<g>
							<g>
								<g>
									<defs>
										<rect id="SVGID_00000174562176719483720400000000567044084952465845_" x="317.9" y="0.1" width="201.6" height="48"/>
									</defs>
									<clipPath id="SVGID_00000090275695617242499800000004420805079730874010_">
										<use xlink:href="#SVGID_00000174562176719483720400000000567044084952465845_"  style="overflow:visible;"/>
									</clipPath>
									<path style="clip-path:url(#SVGID_00000090275695617242499800000004420805079730874010_);fill:#0B381E;" d="M459.3,48.6
										c-0.1,0-0.2,0-0.2,0s-0.2,0-0.2-0.1v-0.8c0.1,0,0.1,0,0.2,0.1c0.1,0,0.1,0,0.2,0s0.2,0,0.3-0.1s0.2-0.2,0.2-0.3l0.3-0.8
										l-1.6-5h0.8l1.2,4.1l0,0l1.1-4.1h0.7l-1.8,5.7c-0.1,0.2-0.2,0.5-0.2,0.6s-0.2,0.3-0.2,0.4s-0.2,0.2-0.3,0.2
										C459.6,48.6,459.5,48.6,459.3,48.6"/>
								</g>
							</g>
						</g>
					</g>
					<g>
						<g>
							<g>
								<g>
									<defs>
										<rect id="SVGID_00000163065080973074723590000001169898448478432913_" x="317.9" y="0.1" width="201.6" height="48"/>
									</defs>
									<clipPath id="SVGID_00000139293227563939410460000017622289641886070658_">
										<use xlink:href="#SVGID_00000163065080973074723590000001169898448478432913_"  style="overflow:visible;"/>
									</clipPath>
									<polygon style="clip-path:url(#SVGID_00000139293227563939410460000017622289641886070658_);fill:#0B381E;" points="
										464.3,43.6 462.7,41.6 463.6,41.6 465.3,43.9 465.3,41.6 465.9,41.6 465.9,43.9 467.6,41.6 468.4,41.6 466.9,43.6 
										468.7,46.6 467.8,46.6 466.4,44.2 465.9,44.8 465.9,46.6 465.3,46.6 465.3,44.8 464.7,44.2 463.3,46.6 462.5,46.6 
																			"/>
								</g>
							</g>
						</g>
					</g>
					<g>
						<g>
							<g>
								<g>
									<defs>
										<rect id="SVGID_00000067205559558413695250000012400730468673957293_" x="317.9" y="0.1" width="201.6" height="48"/>
									</defs>
									<clipPath id="SVGID_00000111876070876454761680000000336093161794073221_">
										<use xlink:href="#SVGID_00000067205559558413695250000012400730468673957293_"  style="overflow:visible;"/>
									</clipPath>
									<path style="clip-path:url(#SVGID_00000111876070876454761680000000336093161794073221_);fill:#0B381E;" d="M471,46.7
										c-0.3,0-0.6-0.1-0.8-0.2s-0.4-0.3-0.6-0.5s-0.3-0.5-0.4-0.8s-0.1-0.7-0.1-1s0-0.7,0.1-1s0.2-0.6,0.4-0.8s0.4-0.4,0.6-0.6
										s0.5-0.2,0.8-0.2c0.2,0,0.4,0,0.7,0.1c0.2,0.1,0.4,0.2,0.5,0.3s0.3,0.3,0.4,0.5s0.2,0.5,0.2,0.8h-0.7
										c-0.1-0.3-0.2-0.6-0.3-0.7c-0.2-0.2-0.4-0.3-0.7-0.3c-0.2,0-0.4,0-0.6,0.2c-0.2,0.1-0.3,0.3-0.4,0.4s-0.2,0.4-0.2,0.6
										c0,0.2-0.1,0.5-0.1,0.7s0,0.5,0.1,0.7c0,0.2,0.1,0.4,0.2,0.6s0.2,0.3,0.4,0.4s0.3,0.2,0.6,0.2c0.3,0,0.6-0.1,0.8-0.3
										c0.2-0.2,0.3-0.5,0.3-0.9h0.7c-0.1,0.6-0.3,1.1-0.6,1.4C472,46.5,471.6,46.7,471,46.7"/>
								</g>
							</g>
						</g>
					</g>
					<g>
						<g>
							<g>
								<g>
									<defs>
										<rect id="SVGID_00000047058513080719315420000006594631000817508740_" x="317.9" y="0.1" width="201.6" height="48"/>
									</defs>
									<clipPath id="SVGID_00000140695131601885113180000013259857152214040216_">
										<use xlink:href="#SVGID_00000047058513080719315420000006594631000817508740_"  style="overflow:visible;"/>
									</clipPath>
									<polygon style="clip-path:url(#SVGID_00000140695131601885113180000013259857152214040216_);fill:#0B381E;" points="
										473.8,41.6 474.4,41.6 474.4,44 476.3,41.6 477.2,41.6 475.6,43.6 477.4,46.6 476.6,46.6 475.1,44.1 474.4,44.9 
										474.4,46.6 473.8,46.6 									"/>
								</g>
							</g>
						</g>
					</g>
					<g>
						<g>
							<g>
								<g>
									<defs>
										<rect id="SVGID_00000172442534699099889140000017162444992017995406_" x="317.9" y="0.1" width="201.6" height="48"/>
									</defs>
									<clipPath id="SVGID_00000161613242982732372280000016483742219582454959_">
										<use xlink:href="#SVGID_00000172442534699099889140000017162444992017995406_"  style="overflow:visible;"/>
									</clipPath>
									<path style="clip-path:url(#SVGID_00000161613242982732372280000016483742219582454959_);fill:#0B381E;" d="M479.8,46.7
										c-0.3,0-0.6-0.1-0.8-0.2s-0.4-0.3-0.6-0.5s-0.3-0.5-0.4-0.8s-0.1-0.7-0.1-1c0-0.4,0-0.7,0.1-1s0.2-0.6,0.4-0.8
										c0.2-0.2,0.4-0.4,0.6-0.6c0.2-0.1,0.5-0.2,0.8-0.2s0.6,0.1,0.8,0.2c0.2,0.1,0.4,0.3,0.6,0.6s0.3,0.5,0.4,0.8s0.1,0.7,0.1,1
										c0,0.4,0,0.7-0.1,1s-0.2,0.6-0.4,0.8s-0.4,0.4-0.6,0.5C480.4,46.6,480.2,46.7,479.8,46.7 M479.8,46c0.2,0,0.3,0,0.5-0.1
										s0.3-0.2,0.4-0.4s0.2-0.4,0.3-0.6c0.1-0.2,0.1-0.5,0.1-0.8s0-0.6-0.1-0.8s-0.2-0.4-0.3-0.6c-0.1-0.2-0.2-0.3-0.4-0.4
										c-0.2-0.1-0.3-0.1-0.5-0.1s-0.3,0-0.5,0.1s-0.3,0.2-0.4,0.4s-0.2,0.4-0.3,0.6c-0.1,0.2-0.1,0.5-0.1,0.8s0,0.6,0.1,0.8
										s0.2,0.4,0.3,0.6c0.1,0.2,0.2,0.3,0.4,0.4C479.5,45.9,479.7,46,479.8,46"/>
								</g>
							</g>
						</g>
					</g>
					<g>
						<g>
							<g>
								<g>
									<defs>
										<rect id="SVGID_00000137126878607778072370000006611129101104296856_" x="317.9" y="0.1" width="201.6" height="48"/>
									</defs>
									<clipPath id="SVGID_00000097484233144600921090000013160818706560743609_">
										<use xlink:href="#SVGID_00000137126878607778072370000006611129101104296856_"  style="overflow:visible;"/>
									</clipPath>
									<polygon style="clip-path:url(#SVGID_00000097484233144600921090000013160818706560743609_);fill:#0B381E;" points="
										482.8,41.6 483.5,41.6 483.5,45.7 485.4,41.6 486.2,41.6 486.2,46.6 485.6,46.6 485.6,42.5 483.7,46.6 482.8,46.6 
																			"/>
								</g>
							</g>
						</g>
					</g>
					<g>
						<g>
							<g>
								<g>
									<defs>
										<rect id="SVGID_00000044137824060789925420000002693082950438707589_" x="317.9" y="0.1" width="201.6" height="48"/>
									</defs>
									<clipPath id="SVGID_00000113312906377013561980000008812068677260681135_">
										<use xlink:href="#SVGID_00000044137824060789925420000002693082950438707589_"  style="overflow:visible;"/>
									</clipPath>
									<path style="clip-path:url(#SVGID_00000113312906377013561980000008812068677260681135_);fill:#0B381E;" d="M491.6,46.7
										c-0.3,0-0.6-0.1-0.8-0.2s-0.4-0.3-0.6-0.5s-0.3-0.5-0.4-0.8s-0.1-0.7-0.1-1c0-0.4,0-0.7,0.1-1s0.2-0.6,0.4-0.8
										c0.2-0.2,0.4-0.4,0.6-0.6c0.2-0.1,0.5-0.2,0.8-0.2s0.6,0.1,0.8,0.2c0.2,0.1,0.4,0.3,0.6,0.6s0.3,0.5,0.4,0.8s0.1,0.7,0.1,1
										c0,0.4,0,0.7-0.1,1s-0.2,0.6-0.4,0.8s-0.4,0.4-0.6,0.5C492.2,46.6,491.9,46.7,491.6,46.7 M491.6,46c0.2,0,0.3,0,0.5-0.1
										s0.3-0.2,0.4-0.4s0.2-0.4,0.3-0.6c0.1-0.2,0.1-0.5,0.1-0.8s0-0.6-0.1-0.8s-0.2-0.4-0.3-0.6s-0.2-0.3-0.4-0.4
										c-0.2-0.1-0.3-0.1-0.5-0.1s-0.3,0-0.5,0.1s-0.3,0.2-0.4,0.4s-0.2,0.4-0.3,0.6c-0.1,0.2-0.1,0.5-0.1,0.8s0,0.6,0.1,0.8
										s0.2,0.4,0.3,0.6s0.2,0.3,0.4,0.4C491.2,45.9,491.4,46,491.6,46"/>
								</g>
							</g>
						</g>
					</g>
					<g>
						<g>
							<g>
								<g>
									<defs>
										<rect id="SVGID_00000023990830368626046490000008434267785193357232_" x="317.9" y="0.1" width="201.6" height="48"/>
									</defs>
									<clipPath id="SVGID_00000108300134213332802400000012412222258790739389_">
										<use xlink:href="#SVGID_00000023990830368626046490000008434267785193357232_"  style="overflow:visible;"/>
									</clipPath>
									<path style="clip-path:url(#SVGID_00000108300134213332802400000012412222258790739389_);fill:#0B381E;" d="M494.1,45.9
										h0.5c0.1-0.1,0.1-0.3,0.2-0.6s0.1-0.5,0.2-0.8s0.1-0.6,0.1-0.9c0-0.3,0.1-0.6,0.1-1v-1.1h2.9v4.3h0.6V48h-0.6v-1.5h-3.2V48
										h-0.6L494.1,45.9L494.1,45.9z M497.3,45.9v-3.6h-1.6v0.4c0,0.3,0,0.6,0,0.9s-0.1,0.6-0.1,0.9s-0.1,0.5-0.2,0.8
										s-0.1,0.4-0.2,0.5L497.3,45.9L497.3,45.9z"/>
								</g>
							</g>
						</g>
					</g>
					<g>
						<g>
							<g>
								<g>
									<defs>
										<rect id="SVGID_00000091011791991529683920000009766404572871458732_" x="317.9" y="0.1" width="201.6" height="48"/>
									</defs>
									<clipPath id="SVGID_00000034792589563355111250000012090904132694469534_">
										<use xlink:href="#SVGID_00000091011791991529683920000009766404572871458732_"  style="overflow:visible;"/>
									</clipPath>
									<path style="clip-path:url(#SVGID_00000034792589563355111250000012090904132694469534_);fill:#0B381E;" d="M501.1,46.7
										c-0.3,0-0.6-0.1-0.8-0.2c-0.2-0.1-0.4-0.3-0.6-0.5s-0.3-0.5-0.4-0.8s-0.1-0.7-0.1-1.1s0.1-0.7,0.1-1s0.2-0.6,0.4-0.8
										c0.2-0.2,0.4-0.4,0.6-0.5s0.5-0.2,0.8-0.2c0.4,0,0.7,0.1,0.9,0.3c0.2,0.2,0.4,0.4,0.6,0.7c0.1,0.3,0.2,0.6,0.3,0.9
										c0.1,0.3,0.1,0.7,0.1,1h-3c0,0.2,0,0.4,0.1,0.6c0.1,0.2,0.1,0.4,0.2,0.5c0.1,0.2,0.2,0.3,0.4,0.4c0.2,0.1,0.3,0.1,0.6,0.1
										c0.3,0,0.5-0.1,0.7-0.2c0.2-0.2,0.3-0.4,0.4-0.7h0.7c-0.1,0.6-0.3,1-0.6,1.3C501.9,46.6,501.5,46.7,501.1,46.7 M502.2,43.6
										c0-0.2-0.1-0.4-0.1-0.5c-0.1-0.2-0.1-0.3-0.2-0.5s-0.2-0.2-0.4-0.3s-0.3-0.1-0.5-0.1s-0.3,0-0.5,0.1s-0.3,0.2-0.4,0.3
										s-0.2,0.3-0.2,0.5c-0.1,0.2-0.1,0.3-0.1,0.5H502.2L502.2,43.6z"/>
								</g>
							</g>
						</g>
					</g>
					<g>
						<g>
							<g>
								<g>
									<defs>
										<rect id="SVGID_00000170977849685441631440000008644839253051837617_" x="317.9" y="0.1" width="201.6" height="48"/>
									</defs>
									<clipPath id="SVGID_00000104669987099015400590000004384889622036931747_">
										<use xlink:href="#SVGID_00000170977849685441631440000008644839253051837617_"  style="overflow:visible;"/>
									</clipPath>
									<polygon style="clip-path:url(#SVGID_00000104669987099015400590000004384889622036931747_);fill:#0B381E;" points="
										505,43.6 503.5,41.6 504.3,41.6 506,43.9 506,41.6 506.7,41.6 506.7,43.9 508.4,41.6 509.2,41.6 507.6,43.6 509.4,46.6 
										508.6,46.6 507.2,44.2 506.7,44.8 506.7,46.6 506,46.6 506,44.8 505.5,44.2 504.1,46.6 503.3,46.6 									"/>
								</g>
							</g>
						</g>
					</g>
					<g>
						<g>
							<g>
								<g>
									<defs>
										<rect id="SVGID_00000069389437013138816840000013814463387249493686_" x="317.9" y="0.1" width="201.6" height="48"/>
									</defs>
									<clipPath id="SVGID_00000155858247327664593990000009060228915488241840_">
										<use xlink:href="#SVGID_00000069389437013138816840000013814463387249493686_"  style="overflow:visible;"/>
									</clipPath>
									<path style="clip-path:url(#SVGID_00000155858247327664593990000009060228915488241840_);fill:#0B381E;" d="M509.6,45.9
										h0.5c0.1-0.1,0.1-0.3,0.2-0.6s0.1-0.5,0.2-0.8s0.1-0.6,0.1-0.9c0-0.3,0.1-0.6,0.1-1v-1.1h2.9v4.3h0.6V48h-0.6v-1.5h-3.2V48
										h-0.6L509.6,45.9L509.6,45.9z M512.9,45.9v-3.6h-1.6v0.4c0,0.3,0,0.6,0,0.9s-0.1,0.6-0.1,0.9c-0.1,0.3-0.1,0.5-0.2,0.8
										s-0.1,0.4-0.2,0.5L512.9,45.9L512.9,45.9z"/>
								</g>
							</g>
						</g>
					</g>
					<g>
						<g>
							<g>
								<g>
									<defs>
										<rect id="SVGID_00000017493439379934312670000008575164749729493689_" x="317.9" y="0.1" width="201.6" height="48"/>
									</defs>
									<clipPath id="SVGID_00000101814971413618881230000000299901712489886613_">
										<use xlink:href="#SVGID_00000017493439379934312670000008575164749729493689_"  style="overflow:visible;"/>
									</clipPath>
									<path style="clip-path:url(#SVGID_00000101814971413618881230000000299901712489886613_);fill:#0B381E;" d="M514.9,41.6
										h0.7v1.9h1.3c0.4,0,0.7,0.1,1,0.4s0.4,0.6,0.4,1.1s-0.1,0.8-0.3,1.1s-0.5,0.4-0.9,0.4h-2L514.9,41.6L514.9,41.6z
										 M516.6,45.9c0.6,0,0.8-0.3,0.8-0.8s-0.3-0.8-0.8-0.8h-1V46L516.6,45.9L516.6,45.9z M518.8,41.6h0.7v5h-0.7V41.6z"/>
								</g>
							</g>
						</g>
					</g>
				</g>
			</g>
		</g>
	</g>
</g>
<g id="FANFAN_logo_1_">
	<g>
		<g>
			<g>
				<g>
					<g>
						<defs>
							<rect id="SVGID_00000034053830464584134240000004056247399733435039_" width="279.3" height="65.4"/>
						</defs>
						<clipPath id="SVGID_00000028290490545188030040000017135819582237508760_">
							<use xlink:href="#SVGID_00000034053830464584134240000004056247399733435039_"  style="overflow:visible;"/>
						</clipPath>
						
							<rect x="119.6" y="48.4" style="clip-path:url(#SVGID_00000028290490545188030040000017135819582237508760_);fill:#F89521;" width="155.4" height="16.6"/>
					</g>
				</g>
			</g>
		</g>
		<g>
			<g>
				<g>
					<g>
						<defs>
							<rect id="SVGID_00000075854459893759002720000005345086680522584987_" width="279.3" height="65.4"/>
						</defs>
						<clipPath id="SVGID_00000042737051356822723990000014649751335823434885_">
							<use xlink:href="#SVGID_00000075854459893759002720000005345086680522584987_"  style="overflow:visible;"/>
						</clipPath>
						<path style="clip-path:url(#SVGID_00000042737051356822723990000014649751335823434885_);fill:#010101;" d="M67.3,27h10.8
							L73,12.5L67.3,27z M79.6,40.6v-0.8h3.2l0,0l-4.4-12.2H67.1l-4.7,12.2h4.7v0.8h-9.8v-0.8h3.6l11.4-29.4l-1.1-3.2h4.5L80.3,20
							l7,19.8h2.2v0.8H79.6L79.6,40.6z"/>
					</g>
				</g>
			</g>
		</g>
		<g>
			<g>
				<g>
					<g>
						<defs>
							<rect id="SVGID_00000113332895082008313010000007752161724966081408_" width="279.3" height="65.4"/>
						</defs>
						<clipPath id="SVGID_00000007399032149804961730000009032697446517150142_">
							<use xlink:href="#SVGID_00000113332895082008313010000007752161724966081408_"  style="overflow:visible;"/>
						</clipPath>
						<polygon style="clip-path:url(#SVGID_00000007399032149804961730000009032697446517150142_);fill:#EC2227;" points="7.3,40.6 
							7.6,40.6 7.6,40.6 						"/>
					</g>
				</g>
			</g>
		</g>
		<g>
			<g>
				<g>
					<g>
						<defs>
							<rect id="SVGID_00000042700418885962055050000012876810008245634982_" width="279.3" height="65.4"/>
						</defs>
						<clipPath id="SVGID_00000129895096262420833600000016051693631626006660_">
							<use xlink:href="#SVGID_00000042700418885962055050000012876810008245634982_"  style="overflow:visible;"/>
						</clipPath>
						<polygon style="clip-path:url(#SVGID_00000129895096262420833600000016051693631626006660_);fill:#EC2227;" points="7.3,40.6 
							7.6,40.6 7.6,40.6 						"/>
					</g>
				</g>
			</g>
		</g>
		<g>
			<g>
				<g>
					<g>
						<defs>
							<rect id="SVGID_00000149367041491041695970000010324501840324917151_" width="279.3" height="65.4"/>
						</defs>
						<clipPath id="SVGID_00000119820927586283633730000016187959799917471637_">
							<use xlink:href="#SVGID_00000149367041491041695970000010324501840324917151_"  style="overflow:visible;"/>
						</clipPath>
						<polygon style="clip-path:url(#SVGID_00000119820927586283633730000016187959799917471637_);fill:#EC2227;" points="7.3,40.6 
							7.6,40.6 7.6,40.6 						"/>
					</g>
				</g>
			</g>
		</g>
		<g>
			<g>
				<g>
					<g>
						<defs>
							<rect id="SVGID_00000046311237096641377260000016980944038311945896_" width="279.3" height="65.4"/>
						</defs>
						<clipPath id="SVGID_00000067926120821549325200000018401879768430082711_">
							<use xlink:href="#SVGID_00000046311237096641377260000016980944038311945896_"  style="overflow:visible;"/>
						</clipPath>
						<g style="clip-path:url(#SVGID_00000067926120821549325200000018401879768430082711_);">
							<g>
								<g>
									<g>
										<g>
											<defs>
												<rect id="SVGID_00000082346156104833142420000011473274715024006334_" width="279.3" height="65.4"/>
											</defs>
											<clipPath id="SVGID_00000028326107363378249460000006138091937039778225_">
												<use xlink:href="#SVGID_00000082346156104833142420000011473274715024006334_"  style="overflow:visible;"/>
											</clipPath>
											<path style="clip-path:url(#SVGID_00000028326107363378249460000006138091937039778225_);fill:#EC2227;" d="M10.4,2.6
												c0,0-1.5,1.1-2.3,2.4C7.3,6.2,7.2,7.6,7.5,8c0.4,0.6,0.1,1,0.1,1H7.3V4.5c0,0,0.3-0.5,1.3-1.3C9.3,2.6,10.4,2.6,10.4,2.6
												"/>
										</g>
									</g>
								</g>
							</g>
							<g>
								<g>
									<g>
										<g>
											<defs>
												<rect id="SVGID_00000076573456331434999060000006069326799115545742_" width="279.3" height="65.4"/>
											</defs>
											<clipPath id="SVGID_00000038377955057680446610000006924859216204370602_">
												<use xlink:href="#SVGID_00000076573456331434999060000006069326799115545742_"  style="overflow:visible;"/>
											</clipPath>
											<polygon style="clip-path:url(#SVGID_00000038377955057680446610000006924859216204370602_);fill:#EC2227;" points="
												7,40.6 7.3,40.6 7.3,40.6 											"/>
										</g>
									</g>
								</g>
							</g>
							<g>
								<g>
									<g>
										<g>
											<defs>
												<rect id="SVGID_00000045602992062016848680000001229279936861177279_" width="279.3" height="65.4"/>
											</defs>
											<clipPath id="SVGID_00000125581233884216531040000010050774156994536611_">
												<use xlink:href="#SVGID_00000045602992062016848680000001229279936861177279_"  style="overflow:visible;"/>
											</clipPath>
											<path style="clip-path:url(#SVGID_00000125581233884216531040000010050774156994536611_);fill:#EC2227;" d="M12.3,17.3
												c0.9,2.5,1.6,6,0.3,10c-1.7,5.2-5,7.7-5,7.7v5.7H7V17.9c0,0-3.3-2.5-5-7.7c-1.3-4-0.6-7.6,0.3-10.1C2.1,0.9,0,9,7.3,13.2
												l0,0c7.3-4.3,5.2-12.4,5-13.1c1,2.6,1.7,6.1,0.3,10.1c-1.7,5.2-5,7.7-5,7.7v12.2C14.2,26,12.7,18.6,12.3,17.3"/>
										</g>
									</g>
								</g>
							</g>
							<g>
								<g>
									<g>
										<g>
											<defs>
												<rect id="SVGID_00000098920725296940393840000008833537881594768516_" width="279.3" height="65.4"/>
											</defs>
											<clipPath id="SVGID_00000052804773407802916930000002644909566368439706_">
												<use xlink:href="#SVGID_00000098920725296940393840000008833537881594768516_"  style="overflow:visible;"/>
											</clipPath>
											<polygon style="clip-path:url(#SVGID_00000052804773407802916930000002644909566368439706_);fill:#EC2227;" points="
												7,40.6 7.3,40.6 7.3,40.6 											"/>
										</g>
									</g>
								</g>
							</g>
							<g>
								<g>
									<g>
										<g>
											<defs>
												<rect id="SVGID_00000031920312851154503150000001954291379111660960_" width="279.3" height="65.4"/>
											</defs>
											<clipPath id="SVGID_00000061470807522393702190000011475121083807019926_">
												<use xlink:href="#SVGID_00000031920312851154503150000001954291379111660960_"  style="overflow:visible;"/>
											</clipPath>
											<polygon style="clip-path:url(#SVGID_00000061470807522393702190000011475121083807019926_);fill:#EC2227;" points="
												7,40.6 7.3,40.6 7.3,40.6 											"/>
										</g>
									</g>
								</g>
							</g>
							<g>
								<g>
									<g>
										<g>
											<defs>
												<rect id="SVGID_00000003105456950543137190000016680292590741953426_" width="279.3" height="65.4"/>
											</defs>
											<clipPath id="SVGID_00000086659725017289573700000012766351538620782219_">
												<use xlink:href="#SVGID_00000003105456950543137190000016680292590741953426_"  style="overflow:visible;"/>
											</clipPath>
											<path style="clip-path:url(#SVGID_00000086659725017289573700000012766351538620782219_);fill:#EC2227;" d="M4.2,2.6
												c0,0,1.5,1.1,2.3,2.4C7.2,6.2,7.3,7.6,7,8C6.7,8.7,7,9,7,9h0.3V4.5C7.3,4.5,7,4,6,3.2C5.2,2.6,4.2,2.6,4.2,2.6"/>
										</g>
									</g>
								</g>
							</g>
							<g>
								<g>
									<g>
										<g>
											<defs>
												<rect id="SVGID_00000179606806510541589790000001228368077796729524_" width="279.3" height="65.4"/>
											</defs>
											<clipPath id="SVGID_00000121240560521019711370000005756868613794541723_">
												<use xlink:href="#SVGID_00000179606806510541589790000001228368077796729524_"  style="overflow:visible;"/>
											</clipPath>
											<path style="clip-path:url(#SVGID_00000121240560521019711370000005756868613794541723_);fill:#010101;" d="M28.5,20.8
												L28.5,20.8L28.5,20.8z"/>
										</g>
									</g>
								</g>
							</g>
							<g>
								<g>
									<g>
										<g>
											<defs>
												<rect id="SVGID_00000092415570113301556310000015537153120257033092_" width="279.3" height="65.4"/>
											</defs>
											<clipPath id="SVGID_00000163071218590528623380000002209978095201963455_">
												<use xlink:href="#SVGID_00000092415570113301556310000015537153120257033092_"  style="overflow:visible;"/>
											</clipPath>
											<path style="clip-path:url(#SVGID_00000163071218590528623380000002209978095201963455_);fill:#010101;" d="M28.5,20.7
												L28.5,20.7L28.5,20.7v-0.1C28.5,20.7,28.5,20.7,28.5,20.7"/>
										</g>
									</g>
								</g>
							</g>
							<g>
								<g>
									<g>
										<g>
											<defs>
												<rect id="SVGID_00000124872713375383076310000018050192085166299266_" width="279.3" height="65.4"/>
											</defs>
											<clipPath id="SVGID_00000168116146081600735730000014939869212560140687_">
												<use xlink:href="#SVGID_00000124872713375383076310000018050192085166299266_"  style="overflow:visible;"/>
											</clipPath>
											<path style="clip-path:url(#SVGID_00000168116146081600735730000014939869212560140687_);fill:#010101;" d="M44.1,40.6
												h-5.5l0,0H44.1C44.2,40.6,44.2,40.6,44.1,40.6"/>
										</g>
									</g>
								</g>
							</g>
							<g>
								<g>
									<g>
										<g>
											<defs>
												<rect id="SVGID_00000106129551211793559210000017810843950058640537_" width="279.3" height="65.4"/>
											</defs>
											<clipPath id="SVGID_00000111907656576085515180000011919871505235516075_">
												<use xlink:href="#SVGID_00000106129551211793559210000017810843950058640537_"  style="overflow:visible;"/>
											</clipPath>
											<path style="clip-path:url(#SVGID_00000111907656576085515180000011919871505235516075_);fill:#010101;" d="M38.8,8V7.2
												C32.9,7.4,22.7,9.1,22.7,21l0,0c0,11.9,10.2,13.6,16.1,13.8V34c-8-0.6-10.5-5.5-10.5-13l0,0C28.3,13.5,30.9,8.6,38.8,8
												 M43.7,7.2V8c8,0.6,10.6,5.5,10.6,13l0,0c0,7.6-2.6,12.4-10.6,13v0.8c5.9-0.2,16.1-1.9,16.1-13.8l0,0
												C59.8,9.2,49.6,7.4,43.7,7.2"/>
										</g>
									</g>
								</g>
							</g>
							<g>
								<g>
									<g>
										<g>
											<defs>
												<rect id="SVGID_00000083070641714428044550000001024461480339792028_" width="279.3" height="65.4"/>
											</defs>
											<clipPath id="SVGID_00000026875569099604711850000002673501332852453250_">
												<use xlink:href="#SVGID_00000083070641714428044550000001024461480339792028_"  style="overflow:visible;"/>
											</clipPath>
											<polygon style="clip-path:url(#SVGID_00000026875569099604711850000002673501332852453250_);fill:#010101;" points="
												48.6,39.9 48.6,40.6 33.9,40.6 33.9,39.9 38.8,39.9 38.8,0.7 35.1,0.7 35.1,0 47.4,0 47.4,0.7 43.7,0.7 43.7,39.9 
																							"/>
										</g>
									</g>
								</g>
							</g>
							<g>
								<g>
									<g>
										<g>
											<defs>
												<rect id="SVGID_00000013176223719268682980000017015219224224357296_" width="279.3" height="65.4"/>
											</defs>
											<clipPath id="SVGID_00000042704800445978619020000010909000523215145388_">
												<use xlink:href="#SVGID_00000013176223719268682980000017015219224224357296_"  style="overflow:visible;"/>
											</clipPath>
											<path style="clip-path:url(#SVGID_00000042704800445978619020000010909000523215145388_);fill:#010101;" d="M119.3,39.8
												v0.8h-9.8v-0.8h2.5c0-0.1,0-0.1,0.1-0.2V24.1H100v15.7h2.5v0.8h-9.8v-0.8h2.6l0,0V8h-2V7.3h8.6V8H100v15.3h12.1V8h-2V7.3
												h8.6V8h-2v31.8H119.3L119.3,39.8z"/>
										</g>
									</g>
								</g>
							</g>
							<g>
								<g>
									<g>
										<g>
											<defs>
												<rect id="SVGID_00000045593989787938416940000002096992874958465972_" width="279.3" height="65.4"/>
											</defs>
											<clipPath id="SVGID_00000076600486797502171720000006001890940261202307_">
												<use xlink:href="#SVGID_00000045593989787938416940000002096992874958465972_"  style="overflow:visible;"/>
											</clipPath>
											<path style="clip-path:url(#SVGID_00000076600486797502171720000006001890940261202307_);fill:#010101;" d="M190.6,39.8
												l-7-19.8L179,7.2h-4.5l1.1,3.2l-11.4,29.4h-3.6v0.8h9.8v-0.8h-4.7l4.7-12.2h11.3l4.4,12.2l0,0h-3.2v0.8h9.8v-0.8H190.6
												L190.6,39.8z M170.7,27l5.6-14.5l5.2,14.5H170.7z"/>
										</g>
									</g>
								</g>
							</g>
							<g>
								<g>
									<g>
										<g>
											<defs>
												<rect id="SVGID_00000168074647953833611260000017241752857562777492_" width="279.3" height="65.4"/>
											</defs>
											<clipPath id="SVGID_00000021112994920504361490000005640516794321452197_">
												<use xlink:href="#SVGID_00000168074647953833611260000017241752857562777492_"  style="overflow:visible;"/>
											</clipPath>
											<path style="clip-path:url(#SVGID_00000021112994920504361490000005640516794321452197_);fill:#010101;" d="M131.9,20.8
												L131.9,20.8L131.9,20.8z"/>
										</g>
									</g>
								</g>
							</g>
							<g>
								<g>
									<g>
										<g>
											<defs>
												<rect id="SVGID_00000074424166902739713670000016417260345188187577_" width="279.3" height="65.4"/>
											</defs>
											<clipPath id="SVGID_00000021798803079173434870000007572956626069662863_">
												<use xlink:href="#SVGID_00000074424166902739713670000016417260345188187577_"  style="overflow:visible;"/>
											</clipPath>
											<path style="clip-path:url(#SVGID_00000021798803079173434870000007572956626069662863_);fill:#010101;" d="M131.9,20.7
												L131.9,20.7L131.9,20.7v-0.1C131.9,20.7,131.9,20.7,131.9,20.7"/>
										</g>
									</g>
								</g>
							</g>
							<g>
								<g>
									<g>
										<g>
											<defs>
												<rect id="SVGID_00000099624544914488548010000006069875867940122775_" width="279.3" height="65.4"/>
											</defs>
											<clipPath id="SVGID_00000163757566813164097940000011163848572013290918_">
												<use xlink:href="#SVGID_00000099624544914488548010000006069875867940122775_"  style="overflow:visible;"/>
											</clipPath>
											<path style="clip-path:url(#SVGID_00000163757566813164097940000011163848572013290918_);fill:#010101;" d="M147.5,40.6
												H142l0,0H147.5L147.5,40.6"/>
										</g>
									</g>
								</g>
							</g>
							<g>
								<g>
									<g>
										<g>
											<defs>
												<rect id="SVGID_00000144321418075476998680000013041784793538482094_" width="279.3" height="65.4"/>
											</defs>
											<clipPath id="SVGID_00000081620527118559505610000005869877654745399219_">
												<use xlink:href="#SVGID_00000144321418075476998680000013041784793538482094_"  style="overflow:visible;"/>
											</clipPath>
											<path style="clip-path:url(#SVGID_00000081620527118559505610000005869877654745399219_);fill:#010101;" d="M142.2,8V7.2
												c-5.9,0.2-16.1,1.9-16.1,13.8l0,0c0,11.9,10.2,13.6,16.1,13.8V34c-8-0.6-10.5-5.5-10.5-13l0,0
												C131.7,13.5,134.2,8.6,142.2,8 M147,7.2V8c8,0.6,10.6,5.5,10.6,13l0,0c0,7.6-2.6,12.4-10.6,13v0.8
												c5.9-0.2,16.1-1.9,16.1-13.8l0,0C163.2,9.2,152.9,7.4,147,7.2"/>
										</g>
									</g>
								</g>
							</g>
							<g>
								<g>
									<g>
										<g>
											<defs>
												<rect id="SVGID_00000182487159950985599850000017063325329628416153_" width="279.3" height="65.4"/>
											</defs>
											<clipPath id="SVGID_00000069396319348038405680000010839377418396895131_">
												<use xlink:href="#SVGID_00000182487159950985599850000017063325329628416153_"  style="overflow:visible;"/>
											</clipPath>
											<polygon style="clip-path:url(#SVGID_00000069396319348038405680000010839377418396895131_);fill:#010101;" points="
												152,39.9 152,40.6 137.2,40.6 137.2,39.9 142.2,39.9 142.2,0.7 138.5,0.7 138.5,0 150.8,0 150.8,0.7 147,0.7 147,39.9 
																							"/>
										</g>
									</g>
								</g>
							</g>
							<g>
								<g>
									<g>
										<g>
											<defs>
												<rect id="SVGID_00000004546607946214070140000012515282653749451942_" width="279.3" height="65.4"/>
											</defs>
											<clipPath id="SVGID_00000102522045288588301490000014758960985239021980_">
												<use xlink:href="#SVGID_00000004546607946214070140000012515282653749451942_"  style="overflow:visible;"/>
											</clipPath>
											<path style="clip-path:url(#SVGID_00000102522045288588301490000014758960985239021980_);fill:#010101;" d="M222.7,39.8
												v0.8h-9.8v-0.8h2.5c0-0.1,0-0.1,0.1-0.2V24.1h-12.1v15.7h2.5v0.8H196v-0.8h2.6l0,0V8h-2V7.3h8.6V8h-1.9v15.3h12.1V8h-2
												V7.3h8.6V8h-2v31.8H222.7L222.7,39.8z"/>
										</g>
									</g>
								</g>
							</g>
							<g>
								<g>
									<g>
										<g>
											<defs>
												<rect id="SVGID_00000103244889604738973110000000881331377768695719_" width="279.3" height="65.4"/>
											</defs>
											<clipPath id="SVGID_00000020377604996297613660000009992338657614889101_">
												<use xlink:href="#SVGID_00000103244889604738973110000000881331377768695719_"  style="overflow:visible;"/>
											</clipPath>
											<path style="clip-path:url(#SVGID_00000020377604996297613660000009992338657614889101_);fill:#FFFFFF;" d="M137.7,59.1
												c0-0.2,0.1-0.4,0.2-0.5s0.3-0.2,0.5-0.2s0.4,0.1,0.5,0.2c0.1,0.1,0.2,0.3,0.2,0.5s-0.1,0.4-0.2,0.5
												c-0.1,0.1-0.3,0.2-0.5,0.2s-0.4-0.1-0.5-0.2C137.8,59.5,137.7,59.4,137.7,59.1 M141.6,59.1c0-0.2,0.1-0.4,0.2-0.5
												s0.3-0.2,0.5-0.2s0.4,0.1,0.5,0.2c0.1,0.1,0.2,0.3,0.2,0.5s-0.1,0.4-0.2,0.5c-0.1,0.1-0.3,0.2-0.5,0.2s-0.4-0.1-0.5-0.2
												C141.7,59.5,141.6,59.4,141.6,59.1 M145.5,59.1c0-0.2,0.1-0.4,0.2-0.5s0.3-0.2,0.5-0.2s0.4,0.1,0.5,0.2
												c0.1,0.1,0.2,0.3,0.2,0.5s-0.1,0.4-0.2,0.5c-0.1,0.1-0.3,0.2-0.5,0.2s-0.4-0.1-0.5-0.2C145.5,59.5,145.5,59.4,145.5,59.1
												 M155.3,55.8V55l0,0l-0.5,0.8l-2.6,3.9h-0.5v-6.6h0.9v4v0.8l0,0l0.5-0.8l2.6-4h0.5v6.6h-0.9V55.8L155.3,55.8z
												 M159.2,56.8v-0.9h0.8c0.1,0,0.3,0,0.4-0.1c0.1,0,0.3-0.1,0.4-0.2c0.1-0.1,0.2-0.2,0.3-0.3s0.1-0.3,0.1-0.4
												c0-0.3-0.1-0.6-0.3-0.7c-0.2-0.1-0.5-0.2-0.9-0.2c-0.3,0-0.6,0-0.8,0.2c-0.3,0.1-0.5,0.2-0.6,0.3l-0.3-0.8
												c0.2-0.2,0.5-0.3,0.8-0.4c0.3-0.1,0.7-0.2,1.1-0.2c1.3,0,2,0.5,2,1.6c0,0.3-0.1,0.6-0.3,0.9s-0.4,0.5-0.8,0.6l0,0
												c0.5,0.1,0.8,0.3,1,0.5c0.2,0.3,0.3,0.6,0.3,1.1c0,0.3-0.1,0.5-0.2,0.8c-0.1,0.2-0.3,0.4-0.5,0.6
												c-0.2,0.2-0.5,0.3-0.8,0.4s-0.7,0.2-1.1,0.2c-0.4,0-0.7,0-1-0.1s-0.5-0.2-0.7-0.3l0.3-0.9c0.2,0.1,0.4,0.2,0.7,0.3
												s0.5,0.1,0.8,0.1c0.5,0,0.8-0.1,1.1-0.3s0.4-0.5,0.4-0.8s-0.1-0.6-0.3-0.8s-0.6-0.3-1.2-0.3L159.2,56.8L159.2,56.8
												L159.2,56.8z M168.2,59.7v-6.6h0.9v5.7h2v-5.7h0.9v5.7h2v-5.7h0.9v6.6H168.2z M177,56.4c0-1.1,0.2-2,0.7-2.6
												c0.4-0.6,1.1-0.9,1.9-0.9c0.4,0,0.8,0.1,1.1,0.2c0.3,0.2,0.6,0.4,0.8,0.7s0.4,0.7,0.5,1.1c0.1,0.4,0.2,0.9,0.2,1.4
												c0,1.1-0.2,2-0.7,2.6c-0.4,0.6-1.1,0.9-1.9,0.9c-0.4,0-0.8-0.1-1.1-0.2c-0.3-0.2-0.6-0.4-0.8-0.7s-0.4-0.7-0.5-1.1
												C177.1,57.4,177,56.9,177,56.4 M179.6,53.9c-1.1,0-1.6,0.8-1.6,2.5c0,0.3,0,0.7,0.1,1s0.2,0.6,0.3,0.8s0.3,0.4,0.5,0.5
												s0.5,0.2,0.8,0.2c1.1,0,1.6-0.8,1.6-2.5c0-0.3,0-0.7-0.1-1s-0.2-0.6-0.3-0.8s-0.3-0.4-0.5-0.5
												C180.2,54,179.9,53.9,179.6,53.9 M185.8,57.4l0.3,1.3h0.1l0.3-1.3l1.1-4.3h0.9l-1.7,5.9c-0.1,0.4-0.3,0.9-0.4,1.3
												c-0.1,0.4-0.3,0.8-0.4,1.1s-0.3,0.6-0.5,0.8s-0.4,0.3-0.7,0.3s-0.5,0-0.7-0.1l0.2-0.9c0.1,0,0.2,0.1,0.3,0.1
												c0.2,0,0.4-0.1,0.6-0.4s0.4-0.7,0.5-1.3l-2.4-6.6h1.1L185.8,57.4z M190.2,53.1h0.7l0.2,0.8l0,0c0.2-0.3,0.4-0.5,0.7-0.7
												s0.6-0.2,1-0.2c0.8,0,1.4,0.3,1.8,0.8c0.4,0.5,0.6,1.4,0.6,2.6c0,0.5-0.1,1.1-0.2,1.5s-0.3,0.8-0.5,1.1s-0.5,0.5-0.8,0.7
												s-0.7,0.2-1.1,0.2c-0.3,0-0.5,0-0.7-0.1c-0.2,0-0.3-0.1-0.5-0.2v2.8h-0.9L190.2,53.1L190.2,53.1L190.2,53.1z M192.5,53.9
												c-0.4,0-0.7,0.1-0.9,0.3s-0.4,0.6-0.5,1.1v3.3c0.1,0.1,0.3,0.2,0.5,0.3s0.4,0.1,0.7,0.1c0.5,0,1-0.2,1.3-0.7
												s0.5-1.1,0.5-2c0-0.3,0-0.7-0.1-1s-0.1-0.5-0.3-0.8s-0.3-0.4-0.5-0.5C193.1,53.9,192.8,53.9,192.5,53.9 M198.7,57.4
												l0.3,1.3h0.1l0.3-1.3l1.1-4.3h0.9l-1.7,5.9c-0.1,0.4-0.3,0.9-0.4,1.3c-0.1,0.4-0.3,0.8-0.4,1.1s-0.3,0.6-0.5,0.8
												s-0.4,0.3-0.7,0.3s-0.5,0-0.7-0.1l0.2-0.9c0.1,0,0.2,0.1,0.3,0.1c0.2,0,0.4-0.1,0.6-0.4s0.4-0.7,0.5-1.3l-2.4-6.6h1.1
												L198.7,57.4z M207.8,55.8l0.1-1.3h-0.1l-0.4,1l-1.4,2.6h-0.3l-1.5-2.6l-0.4-1l0,0l0.1,1.2v4H203v-6.6h0.9l1.6,3l0.3,0.8
												l0,0l0.3-0.8l1.5-2.9h0.9v6.6h-0.9L207.8,55.8L207.8,55.8z M210.8,56.4c0-1.1,0.2-2,0.7-2.6c0.4-0.6,1.1-0.9,1.9-0.9
												c0.4,0,0.8,0.1,1.1,0.2c0.3,0.2,0.6,0.4,0.8,0.7s0.4,0.7,0.5,1.1c0.1,0.4,0.2,0.9,0.2,1.4c0,1.1-0.2,2-0.7,2.6
												c-0.4,0.6-1.1,0.9-1.9,0.9c-0.4,0-0.8-0.1-1.1-0.2c-0.3-0.2-0.6-0.4-0.8-0.7s-0.4-0.7-0.5-1.1
												C210.9,57.4,210.8,56.9,210.8,56.4 M213.4,53.9c-1.1,0-1.6,0.8-1.6,2.5c0,0.3,0,0.7,0.1,1s0.2,0.6,0.3,0.8
												s0.3,0.4,0.5,0.5s0.5,0.2,0.8,0.2c1.1,0,1.6-0.8,1.6-2.5c0-0.3,0-0.7-0.1-1s-0.2-0.6-0.3-0.8s-0.3-0.4-0.5-0.5
												C213.9,53.9,213.7,53.9,213.4,53.9 M218,53.1c0.3,0,0.6,0,0.9-0.1s0.7,0,1.1,0c0.8,0,1.3,0.1,1.7,0.4
												c0.3,0.3,0.5,0.7,0.5,1.2c0,0.3-0.1,0.6-0.2,0.9s-0.4,0.5-0.8,0.7l0,0c0.5,0.1,0.8,0.3,1,0.5c0.2,0.3,0.3,0.6,0.3,1.1
												c0,0.7-0.2,1.2-0.7,1.5s-1.1,0.5-2,0.5c-0.3,0-0.6,0-0.9,0c-0.3,0-0.5,0-0.8-0.1L218,53.1L218,53.1L218,53.1z
												 M220.1,55.9c0.1,0,0.3,0,0.4-0.1c0.1,0,0.3-0.1,0.3-0.2c0.1-0.1,0.2-0.2,0.3-0.3s0.1-0.3,0.1-0.4c0-0.3-0.1-0.6-0.3-0.7
												c-0.2-0.1-0.5-0.2-1-0.2c-0.3,0-0.5,0-0.6,0s-0.3,0-0.4,0v1.9H220.1L220.1,55.9z M219,58.9c0.2,0,0.3,0,0.4,0
												c0.1,0,0.3,0,0.5,0c0.5,0,0.9-0.1,1.2-0.2c0.3-0.2,0.4-0.5,0.4-0.9c0-0.3-0.1-0.6-0.3-0.8s-0.6-0.3-1.1-0.3h-1L219,58.9
												L219,58.9z M234.6,53.5l0.1-1.4h-0.1l-0.5,1.3l-2.1,4.2h-0.3l-2.3-4.2l-0.4-1.3l0,0l0.2,1.4v6.2h-0.9v-9.3h0.7l2.6,4.7
												l0.4,1l0,0l0.3-1.1l2.5-4.7h0.8v9.3h-1V53.5L234.6,53.5L234.6,53.5z M241.7,55.8V55l0,0l-0.5,0.8l-2.6,3.9h-0.5v-6.6h0.9
												v4v0.8l0,0l0.5-0.8l2.6-4h0.5v6.6h-0.9V55.8L241.7,55.8z M248.2,54h-1.7c0,0.4,0,0.8-0.1,1.2c0,0.4-0.1,0.9-0.1,1.3
												c0,0.4-0.1,0.8-0.2,1.2s-0.2,0.7-0.3,1s-0.3,0.5-0.5,0.7s-0.4,0.3-0.6,0.3c-0.2,0-0.3,0-0.4,0c-0.1,0-0.2,0-0.3-0.1
												l0.1-0.9c0.1,0,0.2,0,0.3,0c0.2,0,0.3-0.1,0.4-0.2c0.1-0.2,0.2-0.4,0.3-0.9c0.1-0.4,0.2-1,0.2-1.8
												c0.1-0.8,0.1-1.7,0.1-2.9h3.5v6.6H248L248.2,54L248.2,54L248.2,54z M251.4,53.6c0.3-0.2,0.7-0.3,1-0.4
												c0.4-0.1,0.8-0.2,1.2-0.2s0.7,0.1,1,0.2c0.2,0.1,0.4,0.3,0.6,0.5s0.2,0.4,0.3,0.7c0,0.2,0.1,0.5,0.1,0.7c0,0.5,0,1,0,1.5
												s0,1,0,1.4c0,0.3,0,0.6,0,0.9s0.1,0.5,0.1,0.8H255l-0.3-0.9h-0.1c-0.1,0.1-0.2,0.2-0.3,0.3s-0.2,0.2-0.4,0.3
												s-0.3,0.2-0.5,0.2c-0.2,0.1-0.4,0.1-0.7,0.1s-0.5,0-0.7-0.1s-0.4-0.2-0.5-0.4c-0.2-0.2-0.3-0.3-0.4-0.6
												c-0.1-0.2-0.1-0.5-0.1-0.8c0-0.4,0.1-0.7,0.2-1s0.3-0.5,0.6-0.6c0.3-0.2,0.5-0.3,0.9-0.3c0.3-0.1,0.8-0.1,1.2-0.1h0.3
												c0.1,0,0.2,0,0.3,0c0-0.3,0-0.5,0-0.7c0-0.5-0.1-0.8-0.3-1s-0.5-0.3-0.9-0.3c-0.1,0-0.3,0-0.4,0s-0.3,0-0.5,0.1
												s-0.3,0.1-0.5,0.2c-0.1,0.1-0.3,0.1-0.4,0.2L251.4,53.6z M253.1,58.9c0.2,0,0.4,0,0.6-0.1c0.2-0.1,0.3-0.2,0.5-0.2
												c0.1-0.1,0.2-0.2,0.3-0.3s0.1-0.2,0.2-0.3v-1.1c-0.1,0-0.2,0-0.3,0s-0.2,0-0.3,0c-0.2,0-0.5,0-0.7,0s-0.4,0.1-0.6,0.2
												c-0.2,0.1-0.3,0.2-0.4,0.3c-0.1,0.2-0.2,0.3-0.2,0.5c0,0.3,0.1,0.5,0.3,0.8C252.5,58.8,252.8,58.9,253.1,58.9
												 M261.5,56.8h-2.7v2.9h-0.9v-6.6h0.9v2.8h2.7v-2.8h0.9v6.6h-0.9V56.8z M264.8,53.6c0.3-0.2,0.7-0.3,1-0.4
												c0.4-0.1,0.8-0.2,1.2-0.2c0.4,0,0.7,0.1,1,0.2c0.3,0.1,0.4,0.3,0.6,0.5s0.2,0.4,0.3,0.7c0,0.2,0.1,0.5,0.1,0.7
												c0,0.5,0,1,0,1.5s0,1,0,1.4c0,0.3,0,0.6,0,0.9c0,0.3,0.1,0.5,0.1,0.8h-0.7l-0.3-0.9H268c-0.1,0.1-0.2,0.2-0.3,0.3
												c-0.1,0.1-0.2,0.2-0.4,0.3c-0.2,0.1-0.3,0.2-0.5,0.2c-0.2,0.1-0.4,0.1-0.7,0.1s-0.5,0-0.7-0.1s-0.4-0.2-0.5-0.4
												c-0.2-0.2-0.3-0.3-0.4-0.6c-0.1-0.2-0.1-0.5-0.1-0.8c0-0.4,0.1-0.7,0.2-1s0.3-0.5,0.6-0.6c0.3-0.2,0.5-0.3,0.9-0.3
												c0.3-0.1,0.8-0.1,1.2-0.1h0.3c0.1,0,0.2,0,0.3,0c0-0.3,0-0.5,0-0.7c0-0.5-0.1-0.8-0.3-1s-0.5-0.3-0.9-0.3
												c-0.1,0-0.3,0-0.4,0c-0.2,0-0.3,0-0.5,0.1c-0.2,0-0.3,0.1-0.5,0.2c-0.1,0.1-0.3,0.1-0.4,0.2L264.8,53.6z M266.4,58.9
												c0.2,0,0.4,0,0.6-0.1s0.3-0.2,0.5-0.2c0.1-0.1,0.2-0.2,0.3-0.3c0.1-0.1,0.1-0.2,0.2-0.3v-1.1c-0.1,0-0.2,0-0.3,0
												c-0.1,0-0.2,0-0.3,0c-0.2,0-0.5,0-0.7,0s-0.4,0.1-0.6,0.2c-0.2,0.1-0.3,0.2-0.4,0.3c-0.1,0.2-0.2,0.3-0.2,0.5
												c0,0.3,0.1,0.5,0.3,0.8C265.9,58.8,266.1,58.9,266.4,58.9"/>
										</g>
									</g>
								</g>
							</g>
						</g>
					</g>
				</g>
			</g>
		</g>
	</g>
</g>
<g>
	<path d="M293.6,16.5c-3.9,0.5-4.6,1.5-6.5,4.2c-1.5,2.1-3,4.4-5,7.4c2.4,2.3,7.9,8.4,9.5,11.1l-0.3,0.6c-3.1-0.3-6.2-1.6-6.9-2.3
		c-0.7-0.8-3.4-3.4-5.2-5.3c-4.1,5.4-7.8,7.3-11.8,7.3c-7.2,0-11.2-5.3-11.2-10.2c0.1-5.2,3-7.3,8.4-10.7c-2.7-2.3-4.4-4.9-4.4-8
		c0.1-5,4.3-8.9,9.3-8.9c4.7,0,8.4,3.2,8.4,7.7c-0.1,2.3-1.2,4-2.4,5c-1.1,0.8-2.8,1.9-4.8,3.1c1.8,1.6,6.5,5.4,10,8.9
		c1.3-2,2.4-3.9,3.5-6.4c1.1-2.6,0.6-3.3-3.5-3.8v-1.6h12.9V16.5z M268.8,35.7c3.9,0,6.1-1.2,9-5c-2.9-3.3-6.8-6.6-11.7-10.7
		c-4,2.6-5.1,5-5.1,7.9C261.1,33.2,265.2,35.7,268.8,35.7z M269,3.8c-2.8,0-4.5,2.2-4.5,5.5c0,2.9,1.5,4.6,4.8,7.3
		c3.1-2.2,4.5-4,4.5-6.9C273.7,6.5,272.1,3.8,269,3.8z"/>
</g>
</svg>
